<svg width="765" height="780" viewBox="0 0 765 780" fill="none" xmlns="http://www.w3.org/2000/svg">
<path d="M727.115 351.957C723.854 349.349 720.593 347.392 717.333 345.436L458.433 196.096V195.444L447.999 189.574L416.044 171.314L220.402 670.202L727.115 351.957Z" fill="#0089D1"/>
<path d="M250.414 779.109L448.013 664.984L461.055 657.811V658.463L717.347 510.427C764.301 483.037 776.691 426.301 753.867 383.26L250.414 779.109Z" fill="#0089D1"/>
<path d="M52.1712 355.218L338.461 125.664L142.819 12.8441C79.5611 -23.6758 0 21.974 0 95.6659V758.893C0 766.066 0.65215 773.24 2.60857 779.761L249.77 271.744L52.1712 355.218Z" fill="#0089D1"/>
</svg>
