<svg width="280" height="280" viewBox="0 0 280 280" fill="none" xmlns="http://www.w3.org/2000/svg">
<circle cx="140" cy="140" r="140" fill="#48BBF8"/>
<path d="M205.047 133.906C204.512 133.478 203.978 133.158 203.444 132.837L161.024 108.368V108.262L159.314 107.3L154.079 104.308L122.023 186.049L205.047 133.906Z" fill="white"/>
<path d="M126.941 203.893L159.317 185.194L161.454 184.019V184.126L203.446 159.871C211.139 155.383 213.17 146.087 209.43 139.035L126.941 203.893Z" fill="white"/>
<path d="M94.4602 134.44L141.368 96.8284L109.312 78.3432C98.9479 72.3596 85.9121 79.8391 85.9121 91.9133V200.581C85.9121 201.756 86.019 202.931 86.3395 204L126.836 120.763L94.4602 134.44Z" fill="white"/>
</svg>
