<svg width="4316" height="1062" viewBox="0 0 4316 1062" fill="none" xmlns="http://www.w3.org/2000/svg">
<path d="M727.114 351.957C723.854 349.349 720.593 347.392 717.332 345.436L458.433 196.096V195.444L447.998 189.574L416.043 171.314L220.401 670.202L727.114 351.957Z" fill="#0089D1"/>
<path d="M250.414 779.109L448.013 664.984L461.055 657.811V658.463L717.347 510.427C764.301 483.037 776.691 426.301 753.866 383.26L250.414 779.109Z" fill="#0089D1"/>
<path d="M52.1712 355.218L338.461 125.664L142.819 12.8441C79.5611 -23.6758 0 21.974 0 95.6659V758.893C0 766.066 0.65215 773.24 2.60857 779.761L249.77 271.744L52.1712 355.218Z" fill="#0089D1"/>
<path d="M1001.69 361.741C1019.3 326.526 1044.08 299.788 1075.38 280.876C1106.69 261.964 1142.55 252.182 1181.68 252.182C1222.77 252.182 1258.63 261.964 1287.98 282.18C1317.98 301.744 1339.5 327.178 1352.54 358.481V259.355H1407.97V710.636H1352.54V610.859C1338.85 641.509 1317.33 666.943 1287.33 687.159C1257.33 707.376 1222.11 717.158 1181.03 717.158C1141.9 717.158 1106.69 707.376 1075.38 688.464C1044.08 668.899 1019.3 642.162 1001.69 606.946C984.083 571.73 974.953 530.646 974.953 484.344C974.953 438.042 983.431 396.305 1001.69 361.741ZM1331.67 388.479C1317.33 361.089 1297.76 339.568 1273.63 324.569C1248.85 309.57 1222.11 302.397 1192.12 302.397C1161.47 302.397 1134.08 309.57 1109.95 323.917C1085.82 338.264 1066.25 359.133 1052.56 386.523C1038.86 413.913 1031.69 445.867 1031.69 483.691C1031.69 520.863 1038.86 552.818 1052.56 580.86C1066.25 608.903 1085.82 629.771 1109.95 644.77C1134.08 659.117 1161.47 666.943 1192.12 666.943C1221.46 666.943 1248.85 659.77 1273.63 644.77C1298.41 629.771 1317.33 608.903 1331.67 580.86C1346.02 553.471 1353.19 521.516 1353.19 484.996C1352.54 447.824 1345.37 415.869 1331.67 388.479Z" fill="#0089D1"/>
<path d="M1606.87 307.614V588.034C1606.87 615.424 1612.09 634.336 1621.87 644.77C1631.65 655.205 1649.91 660.422 1674.7 660.422H1725.56V709.984H1666.22C1627.09 709.984 1598.4 700.202 1578.83 681.29C1559.92 662.378 1550.14 631.075 1550.14 587.382V306.962H1490.14V258.051H1550.14V144.579H1606.22V258.051H1724.91V306.962H1606.87V307.614Z" fill="#0089D1"/>
<path d="M2111.66 271.745C2137.74 286.092 2158.61 308.264 2173.61 337.611C2188.61 366.957 2196.44 402.825 2196.44 445.214V709.331H2141.66V451.735C2141.66 402.825 2129.92 365.001 2106.44 339.567C2082.96 313.482 2051.01 300.439 2009.92 300.439C1968.19 300.439 1934.93 314.134 1910.15 341.524C1885.37 368.914 1872.97 409.346 1872.97 462.822V709.331H1817.54V97.623H1872.97V335.002C1886.67 308.264 1906.89 287.396 1933.62 272.397C1960.36 257.397 1990.36 250.224 2023.62 250.224C2055.57 250.224 2084.92 257.397 2111.66 271.745Z" fill="#0089D1"/>
<path d="M2373.8 98.2759V709.984H2318.36V98.2759H2373.8Z" fill="#0089D1"/>
<path d="M2889.63 506.516H2530.95C2532.26 540.427 2540.73 569.773 2554.43 593.902C2568.78 618.032 2587.69 636.292 2610.51 648.682C2633.99 661.073 2659.42 667.594 2686.81 667.594C2722.68 667.594 2752.68 658.464 2777.46 640.204C2802.24 621.944 2818.54 597.815 2826.37 566.513H2885.06C2874.63 610.858 2851.8 646.726 2817.24 674.116C2782.68 702.158 2738.98 715.853 2686.81 715.853C2646.38 715.853 2609.86 706.071 2577.25 687.159C2545.3 668.247 2519.86 640.857 2501.6 606.293C2483.34 571.078 2474.21 530.645 2474.21 483.691C2474.21 436.737 2483.34 395.652 2500.95 360.436C2519.21 325.221 2543.99 298.483 2575.95 279.571C2607.9 260.659 2645.08 251.529 2686.16 251.529C2727.25 251.529 2763.11 260.659 2794.42 279.571C2825.07 298.483 2849.2 323.264 2865.5 355.219C2882.45 387.174 2890.28 421.737 2890.28 460.866C2891.58 481.082 2890.93 496.081 2889.63 506.516ZM2815.94 373.479C2802.24 350.002 2783.98 331.742 2761.16 320.004C2737.68 307.613 2712.25 301.744 2684.86 301.744C2643.77 301.744 2608.56 315.439 2579.21 342.828C2549.86 370.218 2534.21 409.347 2530.95 459.562H2835.5C2835.5 425.65 2828.98 396.956 2815.94 373.479Z" fill="#0089D1"/>
<path d="M3151.16 265.876C3173.98 252.181 3200.72 245.007 3230.06 245.007V366.305H3200.72C3166.15 366.305 3139.42 374.783 3121.81 391.739C3104.2 408.695 3095.07 438.693 3095.07 481.082V709.331H2984.21V251.529H3095.07V322.612C3109.42 299.135 3127.68 279.571 3151.16 265.876Z" fill="#0089D1"/>
<path d="M3311.55 177.836C3298.51 164.794 3291.99 148.49 3291.99 129.578C3291.99 110.014 3298.51 94.3624 3311.55 81.3196C3324.6 68.2768 3340.9 61.7554 3360.46 61.7554C3380.03 61.7554 3396.33 68.2768 3409.37 81.3196C3422.42 94.3624 3428.94 110.666 3428.94 129.578C3428.94 149.142 3422.42 164.794 3409.37 177.836C3396.33 190.879 3380.03 197.401 3360.46 197.401C3340.9 197.401 3324.6 190.879 3311.55 177.836ZM3415.24 252.18V709.983H3304.38V252.18H3415.24Z" fill="#0089D1"/>
<path d="M3625.93 614.771H3821.57V709.984H3500.06V616.728L3691.79 347.394H3500.71V252.181H3818.96V345.437L3625.93 614.771Z" fill="#0089D1"/>
<path d="M4311.94 515.646H3991.08C3993.69 548.905 4004.78 574.338 4024.34 593.25C4043.91 612.162 4068.03 621.292 4096.73 621.292C4137.81 621.292 4167.16 603.032 4184.77 565.86H4304.11C4291.72 610.206 4266.94 646.074 4231.07 674.768C4195.2 703.462 4150.86 717.157 4098.69 717.157C4056.3 717.157 4018.47 707.375 3985.21 687.811C3951.95 668.246 3925.22 640.857 3906.96 604.989C3888.04 569.121 3878.91 528.036 3878.91 481.082C3878.91 433.476 3888.04 392.391 3906.96 356.523C3925.22 320.656 3951.3 293.266 3984.56 273.701C4017.82 254.137 4056.3 245.007 4099.34 245.007C4141.07 245.007 4178.25 254.137 4211.51 273.049C4244.76 291.961 4270.2 318.047 4288.46 352.61C4306.72 387.174 4315.85 426.302 4315.85 471.3C4315.2 487.604 4313.89 502.603 4311.94 515.646ZM4200.42 438.041C4199.77 408.042 4189.33 384.565 4169.77 366.305C4149.55 348.698 4125.42 339.568 4096.08 339.568C4068.69 339.568 4045.21 348.046 4026.95 365.653C4008.04 383.261 3996.95 407.39 3992.39 438.041H4200.42Z" fill="#0089D1"/>
<path d="M1597.82 1002.58H1660.43V1018.24H1575V1003.89L1634.34 921.719H1575.65V906.068H1657.17V919.763L1597.82 1002.58Z" fill="#131313"/>
<path d="M1766.5 1020.19C1752.15 1020.19 1739.76 1014.98 1730.63 1005.2C1721.5 995.413 1716.94 981.718 1716.94 964.763V961.502C1716.94 950.416 1718.89 940.634 1722.81 932.156C1726.72 923.678 1732.59 916.504 1739.76 911.287C1746.94 906.07 1754.76 904.114 1763.24 904.114C1776.93 904.114 1788.02 908.679 1795.85 918.461C1803.67 928.243 1807.58 941.286 1807.58 959.546V967.371H1734.55C1734.55 978.458 1737.81 986.936 1743.68 994.109C1749.54 1001.28 1757.37 1004.54 1766.5 1004.54C1773.02 1004.54 1778.24 1003.24 1782.8 1000.63C1787.37 998.022 1791.28 994.109 1794.54 989.544L1805.63 998.674C1797.8 1013.02 1784.76 1020.19 1766.5 1020.19ZM1763.89 919.765C1756.72 919.765 1750.2 922.374 1744.98 928.243C1739.76 934.112 1737.15 941.938 1735.85 951.72H1789.33V950.416C1788.67 940.634 1786.72 933.46 1782.15 927.591C1778.24 922.374 1771.72 919.765 1763.89 919.765Z" fill="#131313"/>
<path d="M1932.91 988.889C1932.91 983.672 1930.96 979.759 1927.04 976.498C1923.13 973.89 1916.61 971.281 1907.48 969.325C1898.35 967.368 1890.52 964.76 1885.31 962.151C1880.09 958.89 1876.18 955.63 1873.57 951.717C1870.96 947.804 1869.65 942.587 1869.65 937.37C1869.65 928.24 1873.57 920.414 1880.74 914.545C1887.91 908.023 1897.7 904.763 1908.78 904.763C1921.17 904.763 1930.96 908.023 1938.78 914.545C1946.61 921.066 1949.87 929.544 1949.87 939.326H1931.61C1931.61 934.109 1929.65 929.544 1925.09 925.631C1920.52 921.718 1915.3 919.762 1908.78 919.762C1902.26 919.762 1897.04 921.066 1893.13 924.327C1889.22 927.588 1887.26 931.5 1887.26 936.065C1887.26 940.63 1889.22 944.543 1892.48 946.5C1895.74 949.108 1902.26 951.065 1911.39 953.021C1920.52 954.978 1928.35 957.586 1933.56 960.847C1939.43 963.455 1943.35 967.368 1945.96 971.281C1948.56 975.194 1950.52 980.411 1950.52 986.28C1950.52 996.714 1946.61 1004.54 1938.78 1010.41C1930.96 1016.28 1921.17 1019.54 1908.78 1019.54C1900.31 1019.54 1892.48 1018.24 1885.96 1014.97C1879.44 1011.71 1874.22 1007.15 1870.31 1001.93C1866.39 996.062 1864.44 990.193 1864.44 983.02H1882.7C1883.35 989.541 1885.31 994.758 1889.87 998.671C1894.44 1002.58 1900.96 1003.89 1908.13 1003.89C1915.3 1003.89 1920.52 1002.58 1925.09 999.323C1930.96 997.367 1932.91 993.454 1932.91 988.889Z" fill="#131313"/>
<path d="M2041 878.677V905.415H2061.22V920.414H2041V990.193C2041 994.758 2041.65 998.019 2043.61 1000.63C2045.56 1002.58 2048.83 1003.89 2052.74 1003.89C2054.69 1003.89 2057.96 1003.24 2061.87 1002.58V1018.24C2056.65 1019.54 2052.09 1020.19 2047.52 1020.19C2039.04 1020.19 2033.17 1017.58 2028.61 1012.37C2024.7 1007.15 2022.74 999.975 2022.74 990.193V921.066H2003.18V906.067H2022.74V878.677H2041Z" fill="#131313"/>
<path d="M2222.55 1018.24V921.067H2205.6V906.068H2222.55V894.982C2222.55 882.591 2225.81 873.461 2231.68 866.94C2237.55 860.418 2246.68 857.158 2257.77 857.158C2262.33 857.158 2266.25 857.81 2270.16 859.114L2269.51 874.766C2266.25 874.113 2262.99 874.113 2259.73 874.113C2253.86 874.113 2249.29 876.07 2246.03 879.33C2242.77 883.243 2240.81 888.46 2240.81 894.982V906.72H2263.64V921.72H2240.81V1018.89H2222.55V1018.24Z" fill="#131313"/>
<path d="M2319.98 960.85C2319.98 949.764 2321.93 939.981 2325.85 931.504C2330.41 923.026 2335.63 915.852 2342.8 911.287C2349.98 906.722 2358.45 904.114 2368.23 904.114C2382.58 904.114 2394.32 909.331 2403.45 919.765C2412.58 930.199 2417.15 944.546 2417.15 962.154V963.459C2417.15 974.545 2415.19 983.675 2411.28 992.805C2407.36 1001.28 2401.49 1008.46 2394.32 1013.02C2387.15 1017.59 2378.67 1020.19 2368.89 1020.19C2354.54 1020.19 2342.15 1014.98 2333.67 1004.54C2324.54 994.109 2319.98 980.414 2319.98 962.806V960.85ZM2338.89 963.459C2338.89 975.849 2341.5 985.631 2347.37 993.457C2353.24 1001.28 2360.41 1004.54 2369.54 1004.54C2378.67 1004.54 2386.49 1000.63 2391.71 993.457C2397.58 985.631 2400.19 975.197 2400.19 960.85C2400.19 948.459 2397.58 938.677 2391.71 931.504C2385.84 923.678 2378.67 919.765 2369.54 919.765C2360.41 919.765 2352.58 923.678 2347.37 930.852C2341.5 938.677 2338.89 949.111 2338.89 963.459Z" fill="#131313"/>
<path d="M2533.44 923.026C2530.83 922.374 2527.57 922.374 2524.31 922.374C2512.57 922.374 2504.09 927.591 2500.18 938.025V1017.59H2481.92V906.07H2499.53V919.113C2505.4 909.331 2513.87 904.114 2524.96 904.114C2528.87 904.114 2531.48 904.766 2533.44 905.418V923.026Z" fill="#131313"/>
<path d="M2707.3 878.677V905.415H2727.51V920.414H2707.3V990.193C2707.3 994.758 2707.95 998.019 2709.91 1000.63C2711.86 1002.58 2715.12 1003.89 2719.04 1003.89C2720.99 1003.89 2724.25 1003.24 2728.17 1002.58V1018.24C2722.95 1019.54 2718.38 1020.19 2713.82 1020.19C2705.34 1020.19 2699.47 1017.58 2694.91 1012.37C2690.99 1007.15 2689.04 999.975 2689.04 990.193V921.066H2669.47V906.067H2689.04V878.677H2707.3Z" fill="#131313"/>
<path d="M2807.9 919.761C2815.73 909.327 2826.16 904.11 2839.86 904.11C2862.68 904.11 2873.77 917.804 2873.77 944.542V1018.23H2855.51V943.89C2855.51 936.064 2853.55 930.195 2849.64 926.282C2846.38 922.369 2841.16 920.413 2833.34 920.413C2827.47 920.413 2822.25 922.369 2817.69 925.63C2813.12 928.891 2809.86 933.456 2807.25 938.673V1018.23H2788.99V859.112H2807.25V919.761H2807.9Z" fill="#131313"/>
<path d="M2986.16 1020.19C2971.81 1020.19 2959.42 1014.98 2950.29 1005.2C2941.16 995.413 2936.59 981.718 2936.59 964.763V961.502C2936.59 950.416 2938.55 940.634 2942.46 932.156C2946.38 923.678 2952.25 916.504 2959.42 911.287C2966.59 906.07 2974.42 904.114 2982.9 904.114C2996.59 904.114 3007.68 908.679 3015.5 918.461C3023.33 928.243 3027.24 941.286 3027.24 959.546V967.371H2954.2C2954.2 978.458 2957.46 986.936 2963.33 994.109C2969.2 1001.28 2977.03 1004.54 2986.16 1004.54C2992.68 1004.54 2997.89 1003.24 3002.46 1000.63C3007.02 998.022 3010.94 994.109 3014.2 989.544L3025.28 998.674C3017.46 1013.02 3004.42 1020.19 2986.16 1020.19ZM2984.2 919.765C2977.03 919.765 2970.51 922.374 2965.29 928.243C2960.07 934.112 2957.46 941.938 2956.16 951.72H3009.63V950.416C3008.98 940.634 3007.02 933.46 3002.46 927.591C2997.89 922.374 2992.03 919.765 2984.2 919.765Z" fill="#131313"/>
<path d="M3176.78 961.502C3176.78 943.894 3180.69 930.199 3187.86 919.765C3195.69 909.331 3206.12 904.114 3219.17 904.114C3232.21 904.114 3241.99 908.679 3249.82 918.461L3250.47 906.07H3267.42V1015.63C3267.42 1029.98 3263.51 1041.06 3255.03 1049.54C3246.56 1058.02 3235.47 1061.93 3221.77 1061.93C3213.95 1061.93 3206.12 1059.98 3198.95 1056.71C3191.78 1053.45 3185.91 1048.24 3181.99 1042.37L3191.78 1030.63C3199.6 1041.06 3209.38 1046.28 3220.47 1046.28C3229.6 1046.28 3236.77 1043.67 3241.34 1038.45C3246.56 1033.24 3249.16 1026.06 3249.16 1016.28V1006.5C3241.99 1015.63 3231.56 1019.54 3219.17 1019.54C3206.78 1019.54 3196.34 1014.33 3188.52 1003.89C3180.69 994.109 3176.78 979.762 3176.78 961.502ZM3195.04 963.459C3195.04 975.849 3197.65 985.631 3202.21 992.805C3207.43 999.978 3213.95 1003.89 3223.08 1003.89C3234.82 1003.89 3243.3 998.674 3248.51 987.588V936.069C3242.64 925.634 3234.17 919.765 3223.08 919.765C3213.95 919.765 3207.43 923.678 3202.21 930.852C3197.65 938.677 3195.04 949.111 3195.04 963.459Z" fill="#131313"/>
<path d="M3402.03 1018.24C3400.72 1016.28 3400.07 1012.37 3399.42 1006.5C3390.94 1015.63 3380.5 1020.19 3368.77 1020.19C3358.33 1020.19 3349.2 1016.93 3342.68 1011.06C3336.16 1005.19 3332.25 996.714 3332.25 987.585C3332.25 975.846 3336.16 966.716 3344.64 960.847C3353.11 954.325 3365.51 951.065 3380.5 951.065H3398.11V941.935C3398.11 935.413 3396.16 930.196 3392.24 926.283C3388.33 922.37 3383.11 920.414 3375.29 920.414C3368.77 920.414 3362.9 922.37 3358.33 925.631C3353.77 928.892 3351.81 933.457 3351.81 938.022H3333.55C3333.55 932.153 3335.51 926.935 3339.42 921.718C3343.33 916.501 3348.55 911.936 3355.07 909.328C3361.59 906.067 3368.77 904.763 3376.59 904.763C3388.98 904.763 3398.76 908.023 3405.29 914.545C3412.46 921.066 3415.72 930.196 3416.37 941.283V992.802C3416.37 1003.24 3417.68 1011.06 3420.29 1017.58V1018.89H3402.03V1018.24ZM3371.37 1003.89C3377.24 1003.89 3382.46 1002.58 3387.68 999.323C3392.9 996.062 3396.81 992.15 3398.76 986.932V964.107H3385.07C3362.9 964.107 3351.16 971.281 3351.16 984.976C3351.16 990.845 3353.11 996.062 3357.03 999.323C3360.29 1001.93 3365.51 1003.89 3371.37 1003.89Z" fill="#131313"/>
<path d="M3504.21 906.07L3504.86 918.461C3512.69 908.679 3523.12 904.114 3536.82 904.114C3551.82 904.114 3562.25 909.983 3567.47 922.374C3570.73 917.157 3575.29 912.592 3581.16 909.331C3587.03 906.07 3593.55 904.114 3601.38 904.114C3624.86 904.114 3637.25 917.157 3637.25 943.242V1018.24H3618.99V944.546C3618.99 936.721 3617.03 930.852 3613.77 926.287C3610.51 922.374 3604.64 920.417 3596.16 920.417C3588.99 920.417 3583.12 922.374 3579.21 926.939C3574.64 931.504 3572.03 937.373 3571.38 944.546V1018.89H3553.12V945.199C3553.12 928.895 3545.29 920.417 3530.3 920.417C3517.9 920.417 3510.08 925.634 3505.51 936.721V1018.89H3487.25V906.07H3504.21Z" fill="#131313"/>
<path d="M3750.63 1020.19C3736.28 1020.19 3723.89 1014.98 3714.76 1005.19C3705.63 995.412 3701.06 981.717 3701.06 964.761V961.501C3701.06 950.414 3703.02 940.632 3706.93 932.154C3710.84 923.677 3716.71 916.503 3723.89 911.286C3731.06 906.069 3738.89 904.112 3747.36 904.112C3761.06 904.112 3772.15 908.677 3779.97 918.459C3787.8 928.242 3791.71 941.284 3791.71 959.544V967.37H3718.67C3718.67 978.456 3721.93 986.934 3727.8 994.108C3733.67 1001.28 3741.5 1004.54 3750.63 1004.54C3757.15 1004.54 3762.36 1003.24 3766.93 1000.63C3771.49 998.021 3775.41 994.108 3778.67 989.543L3789.75 998.673C3781.93 1013.02 3768.23 1020.19 3750.63 1020.19ZM3748.02 919.764C3740.84 919.764 3734.32 922.372 3729.1 928.242C3723.89 934.111 3721.28 941.936 3719.97 951.719H3773.45V950.414C3772.8 940.632 3770.84 933.459 3766.28 927.589C3761.71 922.372 3755.84 919.764 3748.02 919.764Z" fill="#131313"/>
</svg>
