<svg width="4316" height="1062" viewBox="0 0 4316 1062" fill="none" xmlns="http://www.w3.org/2000/svg">
<path d="M727.114 351.957C723.854 349.349 720.593 347.392 717.332 345.436L458.433 196.096V195.443L447.998 189.574L416.043 171.314L220.401 670.202L727.114 351.957Z" fill="white"/>
<path d="M250.414 779.109L448.013 664.984L461.055 657.811V658.463L717.347 510.427C764.301 483.037 776.691 426.301 753.866 383.26L250.414 779.109Z" fill="white"/>
<path d="M52.1712 355.218L338.461 125.664L142.819 12.8441C79.5611 -23.6758 0 21.974 0 95.6659V758.893C0 766.066 0.65215 773.24 2.60857 779.761L249.77 271.744L52.1712 355.218Z" fill="white"/>
<path d="M1001.69 361.741C1019.3 326.526 1044.08 299.788 1075.38 280.876C1106.69 261.964 1142.55 252.182 1181.68 252.182C1222.77 252.182 1258.63 261.964 1287.98 282.18C1317.98 301.744 1339.5 327.178 1352.54 358.48V259.355H1407.97V710.636H1352.54V610.859C1338.85 641.509 1317.33 666.943 1287.33 687.159C1257.33 707.376 1222.11 717.158 1181.03 717.158C1141.9 717.158 1106.69 707.376 1075.38 688.464C1044.08 668.899 1019.3 642.162 1001.69 606.946C984.083 571.73 974.953 530.646 974.953 484.344C974.953 438.042 983.431 396.305 1001.69 361.741ZM1331.67 388.479C1317.33 361.089 1297.76 339.568 1273.63 324.569C1248.85 309.57 1222.11 302.396 1192.12 302.396C1161.47 302.396 1134.08 309.57 1109.95 323.917C1085.82 338.264 1066.25 359.133 1052.56 386.522C1038.86 413.912 1031.69 445.867 1031.69 483.691C1031.69 520.863 1038.86 552.818 1052.56 580.86C1066.25 608.902 1085.82 629.771 1109.95 644.77C1134.08 659.117 1161.47 666.943 1192.12 666.943C1221.46 666.943 1248.85 659.769 1273.63 644.77C1298.41 629.771 1317.33 608.902 1331.67 580.86C1346.02 553.47 1353.19 521.516 1353.19 484.996C1352.54 447.824 1345.37 415.869 1331.67 388.479Z" fill="white"/>
<path d="M1606.87 307.614V588.034C1606.87 615.424 1612.09 634.336 1621.87 644.77C1631.65 655.205 1649.91 660.422 1674.7 660.422H1725.56V709.984H1666.22C1627.09 709.984 1598.4 700.202 1578.83 681.29C1559.92 662.378 1550.14 631.075 1550.14 587.382V306.962H1490.14V258.051H1550.14V144.579H1606.22V258.051H1724.91V306.962H1606.87V307.614Z" fill="white"/>
<path d="M2111.66 271.745C2137.74 286.092 2158.61 308.264 2173.61 337.611C2188.61 366.957 2196.44 402.825 2196.44 445.214V709.331H2141.66V451.735C2141.66 402.825 2129.92 365.001 2106.44 339.567C2082.96 313.482 2051.01 300.439 2009.92 300.439C1968.19 300.439 1934.93 314.134 1910.15 341.524C1885.37 368.914 1872.97 409.346 1872.97 462.822V709.331H1817.54V97.623H1872.97V335.002C1886.67 308.264 1906.89 287.396 1933.62 272.397C1960.36 257.397 1990.36 250.224 2023.62 250.224C2055.57 250.224 2084.92 257.397 2111.66 271.745Z" fill="white"/>
<path d="M2373.8 98.2759V709.984H2318.36V98.2759H2373.8Z" fill="white"/>
<path d="M2889.63 506.516H2530.95C2532.26 540.427 2540.73 569.773 2554.43 593.902C2568.78 618.032 2587.69 636.292 2610.51 648.682C2633.99 661.073 2659.42 667.594 2686.81 667.594C2722.68 667.594 2752.68 658.464 2777.46 640.204C2802.24 621.944 2818.54 597.815 2826.37 566.513H2885.06C2874.63 610.858 2851.8 646.726 2817.24 674.116C2782.68 702.158 2738.98 715.853 2686.81 715.853C2646.38 715.853 2609.86 706.071 2577.25 687.159C2545.3 668.247 2519.86 640.857 2501.6 606.293C2483.34 571.078 2474.21 530.645 2474.21 483.691C2474.21 436.737 2483.34 395.652 2500.95 360.436C2519.21 325.221 2543.99 298.483 2575.95 279.571C2607.9 260.659 2645.08 251.529 2686.16 251.529C2727.25 251.529 2763.11 260.659 2794.42 279.571C2825.07 298.483 2849.2 323.264 2865.5 355.219C2882.45 387.174 2890.28 421.737 2890.28 460.866C2891.58 481.082 2890.93 496.081 2889.63 506.516ZM2815.94 373.479C2802.24 350.002 2783.98 331.742 2761.16 320.004C2737.68 307.613 2712.25 301.744 2684.86 301.744C2643.77 301.744 2608.56 315.439 2579.21 342.828C2549.86 370.218 2534.21 409.347 2530.95 459.562H2835.5C2835.5 425.65 2828.98 396.956 2815.94 373.479Z" fill="white"/>
<path d="M3151.16 265.876C3173.98 252.181 3200.72 245.007 3230.06 245.007V366.305H3200.72C3166.15 366.305 3139.42 374.783 3121.81 391.739C3104.2 408.695 3095.07 438.693 3095.07 481.082V709.331H2984.21V251.529H3095.07V322.612C3109.42 299.135 3127.68 279.571 3151.16 265.876Z" fill="white"/>
<path d="M3311.55 177.836C3298.51 164.794 3291.99 148.49 3291.99 129.578C3291.99 110.014 3298.51 94.3624 3311.55 81.3196C3324.6 68.2768 3340.9 61.7554 3360.46 61.7554C3380.03 61.7554 3396.33 68.2768 3409.37 81.3196C3422.42 94.3624 3428.94 110.666 3428.94 129.578C3428.94 149.142 3422.42 164.794 3409.37 177.836C3396.33 190.879 3380.03 197.401 3360.46 197.401C3340.9 197.401 3324.6 190.879 3311.55 177.836ZM3415.24 252.18V709.983H3304.38V252.18H3415.24Z" fill="white"/>
<path d="M3625.93 614.771H3821.57V709.984H3500.06V616.728L3691.79 347.394H3500.71V252.181H3818.96V345.437L3625.93 614.771Z" fill="white"/>
<path d="M4311.94 515.646H3991.08C3993.69 548.905 4004.78 574.338 4024.34 593.25C4043.91 612.162 4068.03 621.292 4096.73 621.292C4137.81 621.292 4167.16 603.032 4184.77 565.86H4304.11C4291.72 610.206 4266.94 646.074 4231.07 674.768C4195.2 703.462 4150.86 717.157 4098.69 717.157C4056.3 717.157 4018.47 707.375 3985.21 687.811C3951.95 668.246 3925.22 640.857 3906.96 604.989C3888.04 569.121 3878.91 528.036 3878.91 481.082C3878.91 433.476 3888.04 392.391 3906.96 356.523C3925.22 320.656 3951.3 293.266 3984.56 273.701C4017.82 254.137 4056.3 245.007 4099.34 245.007C4141.07 245.007 4178.25 254.137 4211.51 273.049C4244.76 291.961 4270.2 318.047 4288.46 352.61C4306.72 387.174 4315.85 426.302 4315.85 471.3C4315.2 487.604 4313.89 502.603 4311.94 515.646ZM4200.42 438.041C4199.77 408.042 4189.33 384.565 4169.77 366.305C4149.55 348.698 4125.42 339.568 4096.08 339.568C4068.69 339.568 4045.21 348.046 4026.95 365.653C4008.04 383.261 3996.95 407.39 3992.39 438.041H4200.42Z" fill="white"/>
<path d="M1558.92 1002.58H1621.53V1018.24H1536.1V1003.89L1595.44 921.719H1536.75V906.068H1618.27V919.763L1558.92 1002.58Z" fill="white"/>
<path d="M1727.6 1020.19C1713.25 1020.19 1700.86 1014.98 1691.73 1005.2C1682.6 995.413 1678.04 981.718 1678.04 964.763V961.502C1678.04 950.416 1679.99 940.634 1683.9 932.156C1687.82 923.678 1693.69 916.504 1700.86 911.287C1708.03 906.07 1715.86 904.114 1724.34 904.114C1738.03 904.114 1749.12 908.679 1756.94 918.461C1764.77 928.243 1768.68 941.286 1768.68 959.546V967.371H1695.64C1695.64 978.458 1698.9 986.936 1704.77 994.109C1710.64 1001.28 1718.47 1004.54 1727.6 1004.54C1734.12 1004.54 1739.34 1003.24 1743.9 1000.63C1748.47 998.022 1752.38 994.109 1755.64 989.544L1766.73 998.674C1758.9 1013.02 1745.86 1020.19 1727.6 1020.19ZM1724.99 919.765C1717.82 919.765 1711.29 922.374 1706.08 928.243C1700.86 934.112 1698.25 941.938 1696.95 951.72H1750.42V950.416C1749.77 940.634 1747.81 933.46 1743.25 927.591C1739.34 922.374 1732.81 919.765 1724.99 919.765Z" fill="white"/>
<path d="M1894.01 988.889C1894.01 983.672 1892.05 979.759 1888.14 976.498C1884.23 973.89 1877.71 971.281 1868.58 969.325C1859.45 967.368 1851.62 964.76 1846.4 962.151C1841.19 958.89 1837.27 955.63 1834.67 951.717C1832.06 947.804 1830.75 942.587 1830.75 937.37C1830.75 928.24 1834.67 920.414 1841.84 914.545C1849.01 908.023 1858.79 904.763 1869.88 904.763C1882.27 904.763 1892.05 908.023 1899.88 914.545C1907.7 921.066 1910.97 929.544 1910.97 939.326H1892.71C1892.71 934.109 1890.75 929.544 1886.18 925.631C1881.62 921.718 1876.4 919.762 1869.88 919.762C1863.36 919.762 1858.14 921.066 1854.23 924.327C1850.32 927.588 1848.36 931.5 1848.36 936.065C1848.36 940.63 1850.32 944.543 1853.58 946.5C1856.84 949.108 1863.36 951.065 1872.49 953.021C1881.62 954.978 1889.44 957.586 1894.66 960.847C1900.53 963.455 1904.44 967.368 1907.05 971.281C1909.66 975.194 1911.62 980.411 1911.62 986.28C1911.62 996.714 1907.7 1004.54 1899.88 1010.41C1892.05 1016.28 1882.27 1019.54 1869.88 1019.54C1861.4 1019.54 1853.58 1018.24 1847.06 1014.97C1840.53 1011.71 1835.32 1007.15 1831.4 1001.93C1827.49 996.062 1825.54 990.193 1825.54 983.02H1843.8C1844.45 989.541 1846.4 994.758 1850.97 998.671C1855.53 1002.58 1862.05 1003.89 1869.23 1003.89C1876.4 1003.89 1881.62 1002.58 1886.18 999.323C1892.05 997.367 1894.01 993.454 1894.01 988.889Z" fill="white"/>
<path d="M2002.1 878.677V905.415H2022.31V920.414H2002.1V990.193C2002.1 994.758 2002.75 998.019 2004.71 1000.63C2006.66 1002.58 2009.92 1003.89 2013.84 1003.89C2015.79 1003.89 2019.05 1003.24 2022.97 1002.58V1018.24C2017.75 1019.54 2013.18 1020.19 2008.62 1020.19C2000.14 1020.19 1994.27 1017.58 1989.71 1012.37C1985.79 1007.15 1983.84 999.975 1983.84 990.193V921.066H1964.27V906.067H1983.84V878.677H2002.1Z" fill="white"/>
<path d="M2183.65 1018.24V921.067H2166.7V906.068H2183.65V894.982C2183.65 882.591 2186.91 873.461 2192.78 866.94C2198.65 860.418 2207.78 857.158 2218.87 857.158C2223.43 857.158 2227.34 857.81 2231.26 859.114L2230.6 874.766C2227.34 874.113 2224.08 874.113 2220.82 874.113C2214.95 874.113 2210.39 876.07 2207.13 879.33C2203.87 883.243 2201.91 888.46 2201.91 894.982V906.72H2224.74V921.72H2201.91V1018.89H2183.65V1018.24Z" fill="white"/>
<path d="M2281.07 960.85C2281.07 949.764 2283.03 939.981 2286.94 931.504C2291.51 923.026 2296.73 915.852 2303.9 911.287C2311.07 906.722 2319.55 904.114 2329.33 904.114C2343.68 904.114 2355.42 909.331 2364.55 919.765C2373.68 930.199 2378.24 944.546 2378.24 962.154V963.459C2378.24 974.545 2376.29 983.675 2372.37 992.805C2368.46 1001.28 2362.59 1008.46 2355.42 1013.02C2348.24 1017.59 2339.77 1020.19 2329.98 1020.19C2315.64 1020.19 2303.25 1014.98 2294.77 1004.54C2285.64 994.109 2281.07 980.414 2281.07 962.806V960.85ZM2299.99 963.459C2299.99 975.849 2302.59 985.631 2308.46 993.457C2314.33 1001.28 2321.51 1004.54 2330.64 1004.54C2339.77 1004.54 2347.59 1000.63 2352.81 993.457C2358.68 985.631 2361.29 975.197 2361.29 960.85C2361.29 948.459 2358.68 938.677 2352.81 931.504C2346.94 923.678 2339.77 919.765 2330.64 919.765C2321.51 919.765 2313.68 923.678 2308.46 930.852C2302.59 938.677 2299.99 949.111 2299.99 963.459Z" fill="white"/>
<path d="M2494.53 923.026C2491.93 922.374 2488.67 922.374 2485.4 922.374C2473.67 922.374 2465.19 927.591 2461.28 938.025V1017.59H2443.02V906.07H2460.62V919.113C2466.49 909.331 2474.97 904.114 2486.06 904.114C2489.97 904.114 2492.58 904.766 2494.53 905.418V923.026Z" fill="white"/>
<path d="M2668.39 878.677V905.415H2688.61V920.414H2668.39V990.193C2668.39 994.758 2669.05 998.019 2671 1000.63C2672.96 1002.58 2676.22 1003.89 2680.13 1003.89C2682.09 1003.89 2685.35 1003.24 2689.26 1002.58V1018.24C2684.05 1019.54 2679.48 1020.19 2674.92 1020.19C2666.44 1020.19 2660.57 1017.58 2656 1012.37C2652.09 1007.15 2650.13 999.975 2650.13 990.193V921.066H2630.57V906.067H2650.13V878.677H2668.39Z" fill="white"/>
<path d="M2769 919.761C2776.83 909.327 2787.26 904.11 2800.96 904.11C2823.78 904.11 2834.87 917.804 2834.87 944.542V1018.23H2816.61V943.89C2816.61 936.064 2814.65 930.195 2810.74 926.282C2807.48 922.369 2802.26 920.413 2794.44 920.413C2788.57 920.413 2783.35 922.369 2778.78 925.63C2774.22 928.891 2770.96 933.456 2768.35 938.673V1018.23H2750.09V859.112H2768.35V919.761H2769Z" fill="white"/>
<path d="M2947.25 1020.19C2932.91 1020.19 2920.52 1014.98 2911.39 1005.2C2902.26 995.413 2897.69 981.718 2897.69 964.763V961.502C2897.69 950.416 2899.65 940.634 2903.56 932.156C2907.47 923.678 2913.34 916.504 2920.52 911.287C2927.69 906.07 2935.52 904.114 2943.99 904.114C2957.69 904.114 2968.77 908.679 2976.6 918.461C2984.43 928.243 2988.34 941.286 2988.34 959.546V967.371H2915.3C2915.3 978.458 2918.56 986.936 2924.43 994.109C2930.3 1001.28 2938.12 1004.54 2947.25 1004.54C2953.78 1004.54 2958.99 1003.24 2963.56 1000.63C2968.12 998.022 2972.04 994.109 2975.3 989.544L2986.38 998.674C2978.56 1013.02 2965.51 1020.19 2947.25 1020.19ZM2945.3 919.765C2938.12 919.765 2931.6 922.374 2926.39 928.243C2921.17 934.112 2918.56 941.938 2917.26 951.72H2970.73V950.416C2970.08 940.634 2968.12 933.46 2963.56 927.591C2958.99 922.374 2953.12 919.765 2945.3 919.765Z" fill="white"/>
<path d="M3137.88 961.502C3137.88 943.894 3141.79 930.199 3148.96 919.765C3156.79 909.331 3167.22 904.114 3180.26 904.114C3193.31 904.114 3203.09 908.679 3210.91 918.461L3211.57 906.07H3228.52V1015.63C3228.52 1029.98 3224.61 1041.06 3216.13 1049.54C3207.65 1058.02 3196.57 1061.93 3182.87 1061.93C3175.05 1061.93 3167.22 1059.98 3160.05 1056.71C3152.87 1053.45 3147.01 1048.24 3143.09 1042.37L3152.87 1030.63C3160.7 1041.06 3170.48 1046.28 3181.57 1046.28C3190.7 1046.28 3197.87 1043.67 3202.44 1038.45C3207.65 1033.24 3210.26 1026.06 3210.26 1016.28V1006.5C3203.09 1015.63 3192.65 1019.54 3180.26 1019.54C3167.87 1019.54 3157.44 1014.33 3149.61 1003.89C3141.79 994.109 3137.88 979.762 3137.88 961.502ZM3156.14 963.458C3156.14 975.849 3158.74 985.631 3163.31 992.805C3168.53 999.978 3175.05 1003.89 3184.18 1003.89C3195.92 1003.89 3204.39 998.674 3209.61 987.588V936.069C3203.74 925.634 3195.26 919.765 3184.18 919.765C3175.05 919.765 3168.53 923.678 3163.31 930.851C3158.74 938.677 3156.14 949.111 3156.14 963.458Z" fill="white"/>
<path d="M3363.12 1018.24C3361.82 1016.28 3361.17 1012.37 3360.51 1006.5C3352.04 1015.63 3341.6 1020.19 3329.86 1020.19C3319.43 1020.19 3310.3 1016.93 3303.78 1011.06C3297.26 1005.19 3293.34 996.714 3293.34 987.585C3293.34 975.846 3297.26 966.716 3305.73 960.847C3314.21 954.325 3326.6 951.065 3341.6 951.065H3359.21V941.935C3359.21 935.413 3357.25 930.196 3353.34 926.283C3349.43 922.37 3344.21 920.414 3336.39 920.414C3329.86 920.414 3323.99 922.37 3319.43 925.631C3314.86 928.892 3312.91 933.457 3312.91 938.022H3294.65C3294.65 932.153 3296.6 926.935 3300.52 921.718C3304.43 916.501 3309.65 911.936 3316.17 909.328C3322.69 906.067 3329.86 904.763 3337.69 904.763C3350.08 904.763 3359.86 908.023 3366.38 914.545C3373.56 921.066 3376.82 930.196 3377.47 941.283V992.802C3377.47 1003.24 3378.77 1011.06 3381.38 1017.58V1018.89H3363.12V1018.24ZM3332.47 1003.89C3338.34 1003.89 3343.56 1002.58 3348.78 999.323C3353.99 996.062 3357.91 992.15 3359.86 986.932V964.107H3346.17C3323.99 964.107 3312.26 971.281 3312.26 984.976C3312.26 990.845 3314.21 996.062 3318.13 999.323C3321.39 1001.93 3326.6 1003.89 3332.47 1003.89Z" fill="white"/>
<path d="M3465.31 906.07L3465.96 918.461C3473.79 908.679 3484.22 904.114 3497.91 904.114C3512.91 904.114 3523.35 909.983 3528.56 922.374C3531.83 917.156 3536.39 912.591 3542.26 909.331C3548.13 906.07 3554.65 904.114 3562.48 904.114C3585.95 904.114 3598.34 917.156 3598.34 943.242V1018.24H3580.08V944.546C3580.08 936.721 3578.13 930.851 3574.87 926.286C3571.61 922.374 3565.74 920.417 3557.26 920.417C3550.09 920.417 3544.22 922.374 3540.3 926.939C3535.74 931.504 3533.13 937.373 3532.48 944.546V1018.89H3514.22V945.198C3514.22 928.895 3506.39 920.417 3491.39 920.417C3479 920.417 3471.18 925.634 3466.61 936.721V1018.89H3448.35V906.07H3465.31Z" fill="white"/>
<path d="M3711.73 1020.19C3697.38 1020.19 3684.99 1014.98 3675.86 1005.19C3666.73 995.412 3662.16 981.717 3662.16 964.761V961.501C3662.16 950.414 3664.12 940.632 3668.03 932.154C3671.95 923.677 3677.82 916.503 3684.99 911.286C3692.16 906.069 3699.99 904.112 3708.47 904.112C3722.16 904.112 3733.25 908.677 3741.07 918.459C3748.9 928.242 3752.81 941.284 3752.81 959.544V967.37H3679.77C3679.77 978.456 3683.03 986.934 3688.9 994.108C3694.77 1001.28 3702.6 1004.54 3711.73 1004.54C3718.25 1004.54 3723.47 1003.24 3728.03 1000.63C3732.6 998.021 3736.51 994.108 3739.77 989.543L3750.86 998.673C3743.03 1013.02 3729.33 1020.19 3711.73 1020.19ZM3709.12 919.764C3701.94 919.764 3695.42 922.372 3690.21 928.242C3684.99 934.111 3682.38 941.936 3681.08 951.719H3734.55V950.414C3733.9 940.632 3731.94 933.459 3727.38 927.589C3722.81 922.372 3716.94 919.764 3709.12 919.764Z" fill="white"/>
</svg>
