<svg width="234" height="58" viewBox="0 0 234 58" fill="none" xmlns="http://www.w3.org/2000/svg">
<path d="M39.4241 19.2227C39.2473 19.0802 39.0705 18.9734 38.8937 18.8665L24.8565 10.7099V10.6743L24.2907 10.3538L22.5582 9.35645L11.9507 36.6044L39.4241 19.2227Z" fill="#0089D1"/>
<path d="M13.5776 42.5529L24.2912 36.3197L24.9984 35.9279V35.9635L38.8942 27.8782C41.44 26.3822 42.1118 23.2834 40.8742 20.9326L13.5776 42.5529Z" fill="#0089D1"/>
<path d="M2.82866 19.4011L18.351 6.86347L7.74346 0.70151C4.31371 -1.29311 0 1.20017 0 5.22503V41.4488C0 41.8406 0.0353588 42.2324 0.141434 42.5886L13.5422 14.842L2.82866 19.4011Z" fill="#0089D1"/>
<path d="M54.31 19.7578C55.2647 17.8344 56.6083 16.3741 58.3055 15.3411C60.0027 14.3082 61.9474 13.7739 64.0689 13.7739C66.2965 13.7739 68.2412 14.3082 69.8323 15.4124C71.4588 16.4809 72.6256 17.87 73.3328 19.5797V14.1657H76.3383V38.8136H73.3328V33.364C72.5903 35.038 71.4235 36.4271 69.797 37.5313C68.1705 38.6355 66.2611 39.1697 64.0336 39.1697C61.9121 39.1697 60.0027 38.6355 58.3055 37.6025C56.6083 36.534 55.2647 35.0737 54.31 33.1503C53.3554 31.2269 52.8604 28.9829 52.8604 26.454C52.8604 23.9251 53.32 21.6456 54.31 19.7578ZM72.2013 21.2181C71.4234 19.7222 70.3627 18.5468 69.0544 17.7276C67.7108 16.9083 66.2611 16.5165 64.6347 16.5165C62.9728 16.5165 61.4878 16.9083 60.1795 17.6919C58.8713 18.4755 57.8105 19.6153 57.068 21.1113C56.3255 22.6073 55.9365 24.3525 55.9365 26.4184C55.9365 28.4487 56.3255 30.1939 57.068 31.7255C57.8105 33.2571 58.8713 34.3969 60.1795 35.2161C61.4878 35.9997 62.9728 36.4271 64.6347 36.4271C66.2258 36.4271 67.7108 36.0353 69.0544 35.2161C70.3981 34.3969 71.4234 33.2571 72.2013 31.7255C72.9792 30.2296 73.3682 28.4843 73.3682 26.4896C73.3328 24.4594 72.9439 22.7141 72.2013 21.2181Z" fill="#0089D1"/>
<path d="M87.1226 16.801V32.1169C87.1226 33.6129 87.4054 34.6458 87.9358 35.2157C88.4662 35.7856 89.4562 36.0705 90.7998 36.0705H93.5578V38.7775H90.3402C88.2187 38.7775 86.6629 38.2432 85.6022 37.2103C84.5768 36.1774 84.0464 34.4677 84.0464 32.0813V16.7654H80.7935V14.0941H84.0464V7.89648H87.0872V14.0941H93.5224V16.7654H87.1226V16.801Z" fill="#0089D1"/>
<path d="M114.492 14.8416C115.906 15.6252 117.037 16.8362 117.851 18.4391C118.664 20.0419 119.088 22.0009 119.088 24.3161V38.7415H116.118V24.6723C116.118 22.0009 115.482 19.935 114.209 18.5459C112.936 17.1212 111.203 16.4088 108.976 16.4088C106.713 16.4088 104.909 17.1568 103.566 18.6528C102.222 20.1487 101.55 22.3571 101.55 25.2778V38.7415H98.5449V5.33154H101.55V18.2966C102.293 16.8362 103.389 15.6965 104.839 14.8772C106.288 14.058 107.915 13.6662 109.718 13.6662C111.451 13.6662 113.042 14.058 114.492 14.8416Z" fill="#0089D1"/>
<path d="M128.704 5.36768V38.7776H125.699V5.36768H128.704Z" fill="#0089D1"/>
<path d="M156.673 27.6645H137.226C137.296 29.5167 137.756 31.1195 138.498 32.4374C139.276 33.7553 140.302 34.7526 141.539 35.4293C142.812 36.1061 144.191 36.4622 145.676 36.4622C147.621 36.4622 149.247 35.9636 150.591 34.9663C151.935 33.969 152.819 32.6511 153.243 30.9414H156.425C155.859 33.3635 154.622 35.3225 152.748 36.8184C150.874 38.35 148.505 39.098 145.676 39.098C143.484 39.098 141.504 38.5637 139.736 37.5308C138.003 36.4979 136.624 35.0019 135.634 33.1141C134.644 31.1907 134.149 28.9824 134.149 26.4179C134.149 23.8534 134.644 21.6094 135.599 19.686C136.589 17.7627 137.933 16.3023 139.665 15.2694C141.398 14.2364 143.413 13.7378 145.641 13.7378C147.868 13.7378 149.813 14.2364 151.51 15.2694C153.172 16.3023 154.48 17.6558 155.364 19.4011C156.284 21.1464 156.708 23.0342 156.708 25.1713C156.779 26.2754 156.743 27.0946 156.673 27.6645ZM152.677 20.3984C151.935 19.1161 150.945 18.1188 149.707 17.4777C148.434 16.801 147.055 16.4804 145.57 16.4804C143.343 16.4804 141.433 17.2284 139.842 18.7243C138.251 20.2203 137.402 22.3574 137.226 25.1H153.738C153.738 23.2479 153.384 21.6807 152.677 20.3984Z" fill="#0089D1"/>
<path d="M170.852 14.5211C172.089 13.7731 173.539 13.3813 175.13 13.3813V20.0063H173.539C171.665 20.0063 170.215 20.4694 169.26 21.3955C168.306 22.3215 167.811 23.96 167.811 26.2752V38.7416H161.8V13.7375H167.811V17.6199C168.589 16.3377 169.579 15.2691 170.852 14.5211Z" fill="#0089D1"/>
<path d="M179.549 9.7131C178.842 9.00073 178.488 8.11028 178.488 7.07735C178.488 6.0088 178.842 5.15396 179.549 4.44159C180.256 3.72923 181.14 3.37305 182.201 3.37305C183.262 3.37305 184.146 3.72923 184.853 4.44159C185.56 5.15396 185.914 6.04442 185.914 7.07735C185.914 8.14589 185.56 9.00073 184.853 9.7131C184.146 10.4255 183.262 10.7816 182.201 10.7816C181.14 10.7816 180.256 10.4255 179.549 9.7131ZM185.171 13.7736V38.7776H179.16V13.7736H185.171Z" fill="#0089D1"/>
<path d="M196.594 33.5777H207.201V38.778H189.77V33.6845L200.165 18.9742H189.805V13.7739H207.06V18.8673L196.594 33.5777Z" fill="#0089D1"/>
<path d="M233.787 28.1629H216.391C216.533 29.9795 217.134 31.3686 218.194 32.4015C219.255 33.4344 220.563 33.9331 222.119 33.9331C224.347 33.9331 225.938 32.9358 226.893 30.9055H233.363C232.691 33.3276 231.348 35.2866 229.403 36.8538C227.458 38.421 225.054 39.169 222.225 39.169C219.927 39.169 217.876 38.6347 216.073 37.5661C214.27 36.4976 212.82 35.0016 211.83 33.0426C210.805 31.0836 210.31 28.8397 210.31 26.2752C210.31 23.675 210.805 21.4311 211.83 19.4721C212.82 17.5131 214.234 16.0171 216.038 14.9485C217.841 13.88 219.927 13.3813 222.261 13.3813C224.524 13.3813 226.539 13.88 228.342 14.9129C230.146 15.9459 231.525 17.3706 232.515 19.2584C233.505 21.1461 234 23.2832 234 25.7409C233.964 26.6313 233.894 27.4506 233.787 28.1629ZM227.741 23.9244C227.706 22.2859 227.14 21.0037 226.079 20.0063C224.983 19.0446 223.675 18.546 222.084 18.546C220.599 18.546 219.326 19.009 218.336 19.9707C217.311 20.9324 216.709 22.2503 216.462 23.9244H227.741Z" fill="#0089D1"/>
<path d="M86.6326 54.7588H90.027V55.6136H85.395V54.83L88.6126 50.3421H85.4304V49.4873H89.8502V50.2353L86.6326 54.7588Z" fill="white"/>
<path d="M95.7776 55.7204C94.9997 55.7204 94.3279 55.4355 93.8329 54.9012C93.3378 54.3669 93.0903 53.6189 93.0903 52.6929V52.5148C93.0903 51.9093 93.1964 51.375 93.4086 50.912C93.6207 50.4489 93.9389 50.0571 94.3279 49.7722C94.7168 49.4872 95.1411 49.3804 95.6008 49.3804C96.3433 49.3804 96.9444 49.6297 97.3687 50.164C97.793 50.6982 98.0051 51.4106 98.0051 52.4079V52.8353H94.045C94.045 53.4409 94.2218 53.9039 94.54 54.2957C94.8582 54.6875 95.2825 54.8656 95.7776 54.8656C96.1311 54.8656 96.414 54.7943 96.6615 54.6519C96.909 54.5094 97.1212 54.2957 97.298 54.0464L97.8991 54.545C97.4748 55.3286 96.7676 55.7204 95.7776 55.7204ZM95.6361 50.2352C95.2472 50.2352 94.8936 50.3777 94.6107 50.6982C94.3279 51.0188 94.1864 51.4462 94.1157 51.9805H97.0151V51.9093C96.9797 51.375 96.8737 50.9832 96.6262 50.6626C96.414 50.3777 96.0604 50.2352 95.6361 50.2352Z" fill="white"/>
<path d="M104.801 54.0103C104.801 53.7253 104.694 53.5116 104.482 53.3335C104.27 53.1911 103.917 53.0486 103.422 52.9417C102.927 52.8349 102.502 52.6924 102.219 52.5499C101.936 52.3718 101.724 52.1938 101.583 51.98C101.441 51.7663 101.371 51.4814 101.371 51.1964C101.371 50.6978 101.583 50.2704 101.972 49.9498C102.361 49.5936 102.891 49.4155 103.492 49.4155C104.164 49.4155 104.694 49.5936 105.119 49.9498C105.543 50.306 105.72 50.769 105.72 51.3033H104.73C104.73 51.0183 104.624 50.769 104.376 50.5553C104.129 50.3416 103.846 50.2347 103.492 50.2347C103.139 50.2347 102.856 50.306 102.644 50.4841C102.432 50.6622 102.325 50.8759 102.325 51.1252C102.325 51.3745 102.432 51.5882 102.608 51.6951C102.785 51.8376 103.139 51.9444 103.634 52.0513C104.129 52.1581 104.553 52.3006 104.836 52.4787C105.154 52.6212 105.366 52.8349 105.508 53.0486C105.649 53.2623 105.755 53.5472 105.755 53.8678C105.755 54.4377 105.543 54.8651 105.119 55.1857C104.694 55.5063 104.164 55.6843 103.492 55.6843C103.033 55.6843 102.608 55.6131 102.255 55.435C101.901 55.2569 101.618 55.0076 101.406 54.7226C101.194 54.4021 101.088 54.0815 101.088 53.6897H102.078C102.113 54.0459 102.219 54.3308 102.467 54.5446C102.714 54.7583 103.068 54.8295 103.457 54.8295C103.846 54.8295 104.129 54.7583 104.376 54.5802C104.694 54.4733 104.801 54.2596 104.801 54.0103Z" fill="white"/>
<path d="M110.661 47.9907V49.4511H111.757V50.2703H110.661V54.0814C110.661 54.3308 110.696 54.5089 110.802 54.6513C110.908 54.7582 111.085 54.8294 111.297 54.8294C111.403 54.8294 111.58 54.7938 111.792 54.7582V55.613C111.509 55.6843 111.262 55.7199 111.014 55.7199C110.555 55.7199 110.236 55.5774 109.989 55.2925C109.777 55.0075 109.671 54.6157 109.671 54.0814V50.3059H108.61V49.4867H109.671V47.9907H110.661Z" fill="white"/>
<path d="M120.504 55.6131V50.306H119.585V49.4868H120.504V48.8813C120.504 48.2045 120.681 47.7059 120.999 47.3497C121.318 46.9935 121.813 46.8154 122.414 46.8154C122.661 46.8154 122.873 46.851 123.085 46.9223L123.05 47.7771C122.873 47.7415 122.696 47.7415 122.52 47.7415C122.201 47.7415 121.954 47.8484 121.777 48.0265C121.6 48.2402 121.494 48.5251 121.494 48.8813V49.5224H122.732V50.3416H121.494V55.6488H120.504V55.6131Z" fill="white"/>
<path d="M125.787 52.4792C125.787 51.8736 125.893 51.3394 126.105 50.8763C126.352 50.4133 126.635 50.0215 127.024 49.7722C127.413 49.5228 127.873 49.3804 128.403 49.3804C129.181 49.3804 129.817 49.6653 130.312 50.2352C130.808 50.8051 131.055 51.5887 131.055 52.5504V52.6216C131.055 53.2271 130.949 53.7258 130.737 54.2245C130.525 54.6875 130.206 55.0793 129.817 55.3286C129.429 55.5779 128.969 55.7204 128.438 55.7204C127.661 55.7204 126.989 55.4355 126.529 54.8656C126.034 54.2957 125.787 53.5477 125.787 52.586V52.4792ZM126.812 52.6216C126.812 53.2984 126.953 53.8327 127.272 54.2601C127.59 54.6875 127.979 54.8656 128.474 54.8656C128.969 54.8656 129.393 54.6519 129.676 54.2601C129.994 53.8327 130.136 53.2628 130.136 52.4792C130.136 51.8024 129.994 51.2681 129.676 50.8763C129.358 50.4489 128.969 50.2352 128.474 50.2352C127.979 50.2352 127.555 50.4489 127.272 50.8407C126.953 51.2681 126.812 51.838 126.812 52.6216Z" fill="white"/>
<path d="M137.361 50.4133C137.219 50.3777 137.042 50.3777 136.866 50.3777C136.229 50.3777 135.77 50.6626 135.557 51.2325V55.5779H134.567V49.4872H135.522V50.1996C135.84 49.6653 136.3 49.3804 136.901 49.3804C137.113 49.3804 137.255 49.416 137.361 49.4516V50.4133Z" fill="white"/>
<path d="M146.787 47.9907V49.4511H147.883V50.2703H146.787V54.0814C146.787 54.3308 146.822 54.5089 146.928 54.6513C147.034 54.7582 147.211 54.8294 147.423 54.8294C147.529 54.8294 147.706 54.7938 147.918 54.7582V55.613C147.635 55.6843 147.388 55.7199 147.14 55.7199C146.681 55.7199 146.362 55.5774 146.115 55.2925C145.903 55.0075 145.797 54.6157 145.797 54.0814V50.3059H144.736V49.4867H145.797V47.9907H146.787Z" fill="white"/>
<path d="M152.242 50.2349C152.666 49.665 153.232 49.38 153.974 49.38C155.212 49.38 155.813 50.128 155.813 51.5884V55.6132H154.823V51.5527C154.823 51.1253 154.717 50.8048 154.505 50.591C154.328 50.3773 154.045 50.2705 153.621 50.2705C153.302 50.2705 153.02 50.3773 152.772 50.5554C152.525 50.7335 152.348 50.9828 152.206 51.2678V55.6132H151.216V46.9224H152.206V50.2349H152.242Z" fill="white"/>
<path d="M161.906 55.7204C161.129 55.7204 160.457 55.4355 159.962 54.9012C159.467 54.3669 159.219 53.6189 159.219 52.6929V52.5148C159.219 51.9093 159.325 51.375 159.537 50.912C159.75 50.4489 160.068 50.0571 160.457 49.7722C160.846 49.4872 161.27 49.3804 161.73 49.3804C162.472 49.3804 163.073 49.6297 163.498 50.164C163.922 50.6982 164.134 51.4106 164.134 52.4079V52.8353H160.174C160.174 53.4409 160.351 53.9039 160.669 54.2957C160.987 54.6875 161.411 54.8656 161.906 54.8656C162.26 54.8656 162.543 54.7943 162.79 54.6519C163.038 54.5094 163.25 54.2957 163.427 54.0464L164.028 54.545C163.604 55.3286 162.896 55.7204 161.906 55.7204ZM161.8 50.2352C161.411 50.2352 161.058 50.3777 160.775 50.6982C160.492 51.0188 160.351 51.4462 160.28 51.9805H163.179V51.9093C163.144 51.375 163.038 50.9832 162.79 50.6626C162.543 50.3777 162.225 50.2352 161.8 50.2352Z" fill="white"/>
<path d="M172.242 52.5148C172.242 51.5531 172.454 50.8051 172.843 50.2352C173.267 49.6653 173.833 49.3804 174.54 49.3804C175.247 49.3804 175.778 49.6297 176.202 50.164L176.237 49.4872H177.156V55.4711C177.156 56.2547 176.944 56.8602 176.485 57.3232C176.025 57.7863 175.424 58 174.681 58C174.257 58 173.833 57.8931 173.444 57.715C173.055 57.537 172.737 57.252 172.525 56.9314L173.055 56.2903C173.479 56.8602 174.01 57.1452 174.611 57.1452C175.106 57.1452 175.495 57.0027 175.742 56.7177C176.025 56.4328 176.166 56.041 176.166 55.5067V54.9724C175.778 55.4711 175.212 55.6848 174.54 55.6848C173.868 55.6848 173.302 55.3999 172.878 54.83C172.454 54.2957 172.242 53.5121 172.242 52.5148ZM173.232 52.6216C173.232 53.2984 173.373 53.8327 173.621 54.2245C173.904 54.6163 174.257 54.83 174.752 54.83C175.389 54.83 175.848 54.545 176.131 53.9395V51.1257C175.813 50.5558 175.353 50.2352 174.752 50.2352C174.257 50.2352 173.904 50.4489 173.621 50.8407C173.373 51.2681 173.232 51.838 173.232 52.6216Z" fill="white"/>
<path d="M184.454 55.6131C184.384 55.5063 184.348 55.2925 184.313 54.972C183.853 55.4706 183.287 55.72 182.651 55.72C182.085 55.72 181.59 55.5419 181.237 55.2213C180.883 54.9007 180.671 54.4377 180.671 53.939C180.671 53.2979 180.883 52.7993 181.343 52.4787C181.802 52.1225 182.474 51.9444 183.287 51.9444H184.242V51.4458C184.242 51.0896 184.136 50.8046 183.924 50.5909C183.712 50.3772 183.429 50.2704 183.005 50.2704C182.651 50.2704 182.333 50.3772 182.085 50.5553C181.838 50.7334 181.732 50.9827 181.732 51.2321H180.742C180.742 50.9115 180.848 50.6265 181.06 50.3416C181.272 50.0567 181.555 49.8073 181.908 49.6649C182.262 49.4868 182.651 49.4155 183.075 49.4155C183.747 49.4155 184.277 49.5936 184.631 49.9498C185.02 50.306 185.197 50.8046 185.232 51.4102V54.224C185.232 54.7939 185.303 55.2213 185.444 55.5775V55.6487H184.454V55.6131ZM182.792 54.8295C183.111 54.8295 183.393 54.7583 183.676 54.5802C183.959 54.4021 184.171 54.1884 184.277 53.9034V52.6568H183.535C182.333 52.6568 181.696 53.0486 181.696 53.7966C181.696 54.1171 181.802 54.4021 182.015 54.5802C182.191 54.7226 182.474 54.8295 182.792 54.8295Z" fill="white"/>
<path d="M189.994 49.4872L190.029 50.164C190.454 49.6297 191.019 49.3804 191.762 49.3804C192.575 49.3804 193.141 49.7009 193.424 50.3777C193.601 50.0927 193.848 49.8434 194.166 49.6653C194.485 49.4872 194.838 49.3804 195.262 49.3804C196.535 49.3804 197.207 50.0927 197.207 51.5175V55.6136H196.217V51.5887C196.217 51.1613 196.111 50.8407 195.934 50.5914C195.757 50.3777 195.439 50.2708 194.98 50.2708C194.591 50.2708 194.272 50.3777 194.06 50.627C193.813 50.8763 193.671 51.1969 193.636 51.5887V55.6492H192.646V51.6243C192.646 50.7339 192.222 50.2708 191.408 50.2708C190.737 50.2708 190.312 50.5558 190.065 51.1613V55.6492H189.075V49.4872H189.994Z" fill="white"/>
<path d="M203.354 55.7204C202.576 55.7204 201.905 55.4355 201.41 54.9012C200.914 54.3669 200.667 53.6189 200.667 52.6929V52.5148C200.667 51.9093 200.773 51.375 200.985 50.912C201.197 50.4489 201.516 50.0571 201.905 49.7722C202.293 49.4872 202.718 49.3804 203.177 49.3804C203.92 49.3804 204.521 49.6297 204.945 50.164C205.37 50.6982 205.582 51.4106 205.582 52.4079V52.8353H201.622C201.622 53.4409 201.798 53.9039 202.117 54.2957C202.435 54.6875 202.859 54.8656 203.354 54.8656C203.708 54.8656 203.991 54.7943 204.238 54.6519C204.486 54.5094 204.698 54.2957 204.875 54.0464L205.476 54.545C205.051 55.3286 204.309 55.7204 203.354 55.7204ZM203.213 50.2352C202.824 50.2352 202.47 50.3777 202.187 50.6982C201.905 51.0188 201.763 51.4462 201.692 51.9805H204.592V51.9093C204.556 51.375 204.45 50.9832 204.203 50.6626C203.955 50.3777 203.637 50.2352 203.213 50.2352Z" fill="white"/>
</svg>
