<svg width="16" height="10" viewBox="0 0 16 10" fill="none" xmlns="http://www.w3.org/2000/svg">
<path fill-rule="evenodd" clip-rule="evenodd" d="M1.44914 0.333344C0.648801 0.333344 0 0.982144 0 1.78247V6.76839C0 8.36904 1.2976 9.66664 2.89827 9.66664H9.8842C10.6845 9.66664 11.3333 9.01784 11.3333 8.21754V3.23161C11.3333 1.63094 10.0357 0.333344 8.43506 0.333344H1.44914ZM16 1.64235V8.35734C16 8.90214 15.3819 9.21694 14.9412 8.89644L12.8824 7.39914C12.5374 7.14824 12.3333 6.74746 12.3333 6.32087V3.67881C12.3333 3.25222 12.5374 2.8514 12.8824 2.60049L14.9412 1.1032C15.3819 0.782734 16 1.0975 16 1.64235Z" fill="white"/>
</svg>
